<svg width="214" height="44" viewBox="0 0 214 44" fill="none" xmlns="http://www.w3.org/2000/svg">
<path d="M1.95415 13.894C2.01518 13.9556 2.01518 13.9556 2.07622 14.0172C2.13726 14.0788 2.13726 14.0788 2.1983 14.1403C2.25933 14.2019 2.25933 14.2019 2.32037 14.2635C2.38141 14.3251 2.38141 14.3251 2.44245 14.3866C2.50348 14.4482 2.56452 14.5098 2.6866 14.5714C2.74764 14.633 2.74763 14.633 2.80867 14.6945C2.86971 14.7561 2.86971 14.7561 2.93075 14.8177C2.99179 14.8793 2.99178 14.8793 3.05282 14.9408C3.11386 15.0024 3.1749 15.064 3.23594 15.064C3.23594 15.064 3.29697 15.1256 3.35801 15.1256C3.41905 15.1256 3.41905 15.1871 3.48009 15.1871C3.54112 15.1871 3.54112 15.2487 3.60216 15.2487L6.04367 16.665L15.3824 11.2463V10.9384V0.963002C15.3824 0.531967 14.8941 0.224086 14.5279 0.470391L3.60216 6.75118C2.01518 7.67483 0.977544 9.33738 0.855469 11.1847C0.977544 12.1083 1.34377 13.032 1.89311 13.7709C1.89311 13.8325 1.95415 13.8325 1.95415 13.894Z" fill="#5CC293"/>
<path d="M5.98264 16.665L3.54113 18.0813C3.48009 18.0813 3.48009 18.1429 3.41905 18.1429C3.35802 18.1429 3.35802 18.2044 3.29698 18.2044C3.23594 18.2044 3.23594 18.266 3.1749 18.266C3.11387 18.3276 3.05283 18.3892 2.99179 18.3892C2.93075 18.4508 2.93075 18.4508 2.86972 18.5123C2.80868 18.5739 2.80868 18.5739 2.74764 18.6355C2.6866 18.6971 2.6866 18.6971 2.62557 18.7586C2.56453 18.8202 2.50349 18.8818 2.38142 18.9434C2.32038 19.0049 2.32038 19.0049 2.25934 19.0665C2.1983 19.1281 2.1983 19.1281 2.13726 19.1897C2.07623 19.2512 2.07623 19.2512 2.01519 19.3128C1.95415 19.3744 1.95415 19.3744 1.89311 19.436C1.83208 19.4976 1.83208 19.4976 1.77104 19.5591C1.2217 20.298 0.855474 21.1601 0.733398 22.1453C0.855474 23.9926 1.89311 25.6552 3.48009 26.5788L14.4669 32.9828C14.8331 33.2291 15.3214 32.9212 15.3214 32.4902V22.5148V22.2069L5.98264 16.665Z" fill="#50B1A2"/>
<path d="M1.95415 19.4976C2.01519 19.436 2.01519 19.436 2.07622 19.3744C2.13726 19.3128 2.13726 19.3128 2.1983 19.2513C2.25934 19.1897 2.25934 19.1897 2.32037 19.1281C2.38141 19.0665 2.38141 19.0665 2.44245 19.005C2.50349 18.9434 2.56453 18.8818 2.6866 18.8202C2.74764 18.7587 2.74764 18.7587 2.80868 18.6971C2.86971 18.6355 2.86971 18.6355 2.93075 18.5739C2.99179 18.5124 2.99179 18.5124 3.05283 18.4508C3.11386 18.3892 3.1749 18.3276 3.23594 18.3276C3.23594 18.3276 3.29698 18.266 3.35801 18.266C3.41905 18.266 3.41905 18.2045 3.48009 18.2045C3.54113 18.2045 3.54113 18.1429 3.60216 18.1429L6.04367 16.7266L3.60216 15.3104C3.54113 15.3104 3.54113 15.2488 3.48009 15.2488C3.41905 15.2488 3.41905 15.1872 3.35801 15.1872C3.29698 15.1872 3.29698 15.1256 3.23594 15.1256C3.1749 15.0641 3.11386 15.0025 3.05283 15.0025C2.99179 14.9409 2.99179 14.9409 2.93075 14.8793C2.86971 14.8178 2.86971 14.8178 2.80868 14.7562C2.74764 14.6946 2.74764 14.6946 2.6866 14.633C2.62556 14.5715 2.56452 14.5099 2.44245 14.4483C2.38141 14.3867 2.38141 14.3867 2.32037 14.3252C2.25934 14.2636 2.25934 14.2636 2.1983 14.202C2.13726 14.1404 2.13726 14.1404 2.07622 14.0789C2.01519 14.0173 2.01519 14.0173 1.95415 13.9557C1.89311 13.8941 1.89311 13.8941 1.83207 13.8325C1.28273 13.0936 0.916509 12.17 0.794434 11.2463C0.794434 11.3695 0.794434 11.4926 0.794434 11.6158V14.1404V21.8375C0.794434 21.9606 0.794434 22.0838 0.794434 22.2685C0.916509 21.3449 1.28273 20.4212 1.83207 19.6823C1.89311 19.5592 1.95415 19.5591 1.95415 19.4976Z" fill="#48A0AD"/>
<path d="M28.6885 30.3349C28.6275 30.2733 28.6275 30.2733 28.5665 30.2117C28.5054 30.1502 28.5054 30.1502 28.4444 30.0886C28.3833 30.027 28.3833 30.027 28.3223 29.9654C28.2613 29.9039 28.2613 29.9039 28.2002 29.8423C28.1392 29.7807 28.0782 29.7191 27.9561 29.6576C27.895 29.596 27.895 29.596 27.834 29.5344C27.773 29.4728 27.773 29.4728 27.7119 29.4113C27.6509 29.3497 27.6509 29.3497 27.5899 29.2881C27.5288 29.2265 27.4678 29.165 27.4067 29.165C27.4067 29.165 27.3457 29.1034 27.2847 29.1034C27.2236 29.1034 27.2236 29.0418 27.1626 29.0418C27.1016 29.0418 27.1015 28.9802 27.0405 28.9802L24.599 27.564L15.3213 32.9827V33.2906V43.2659C15.3213 43.697 15.8096 44.0049 16.1758 43.7585L27.0405 37.4162C28.6275 36.4925 29.6651 34.83 29.7872 32.9827C29.6651 32.059 29.2989 31.1354 28.7496 30.3965C28.7496 30.4581 28.6885 30.3965 28.6885 30.3349Z" fill="#3477AA"/>
<path d="M24.66 27.564L27.1016 26.1477C27.1626 26.1477 27.1626 26.0862 27.2236 26.0862C27.2847 26.0862 27.2847 26.0246 27.3457 26.0246C27.4067 26.0246 27.4067 25.963 27.4678 25.963C27.5288 25.9014 27.5899 25.8399 27.6509 25.8399C27.7119 25.7783 27.7119 25.7783 27.773 25.7167C27.834 25.6551 27.834 25.6551 27.895 25.5936C27.9561 25.532 27.9561 25.532 28.0171 25.4704C28.0782 25.4088 28.1392 25.3472 28.2613 25.2857C28.3223 25.2241 28.3223 25.2241 28.3833 25.1625C28.4444 25.1009 28.4444 25.1009 28.5054 25.0394C28.5665 24.9778 28.5665 24.9778 28.6275 24.9162C28.6885 24.8546 28.6885 24.8546 28.7496 24.7931C28.8106 24.7315 28.8106 24.7315 28.8716 24.6699C29.421 23.931 29.7872 23.0689 29.9093 22.0837C29.7872 20.2364 28.7496 18.5739 27.1626 17.6502L16.1758 11.2463C15.8096 11 15.3213 11.3078 15.3213 11.7389V21.7142V22.0221L24.66 27.564Z" fill="#3E8CB0"/>
<path d="M28.6886 24.7315C28.6276 24.7931 28.6276 24.7931 28.5666 24.8547C28.5666 24.9162 28.5055 24.9162 28.5055 24.9778C28.4445 25.0394 28.4445 25.0394 28.3834 25.101C28.3224 25.1625 28.3224 25.1625 28.2614 25.2241C28.2003 25.2857 28.1393 25.3473 28.0172 25.4088C27.9562 25.4704 27.9562 25.4704 27.8951 25.532C27.8341 25.5936 27.8341 25.5936 27.7731 25.6552C27.712 25.7167 27.712 25.7167 27.651 25.7783C27.59 25.8399 27.5289 25.9015 27.4679 25.9015C27.4679 25.9015 27.4068 25.963 27.3458 25.963C27.2848 25.963 27.2848 26.0246 27.2237 26.0246C27.1627 26.0246 27.1627 26.0862 27.1017 26.0862L24.6602 27.5024L27.1017 28.9187C27.1627 28.9187 27.1627 28.9803 27.2237 28.9803C27.2848 28.9803 27.2848 29.0419 27.3458 29.0419C27.4068 29.0419 27.4068 29.1034 27.4679 29.1034C27.5289 29.165 27.59 29.2266 27.651 29.2266C27.712 29.2882 27.712 29.2882 27.7731 29.3497C27.8341 29.4113 27.8341 29.4113 27.8951 29.4729C27.9562 29.5345 27.9562 29.5345 28.0172 29.596C28.0783 29.6576 28.1393 29.7192 28.2614 29.7808C28.3224 29.8423 28.3224 29.8423 28.3834 29.9039C28.4445 29.9655 28.4445 29.9655 28.5055 30.0271C28.5666 30.0886 28.5666 30.0887 28.6276 30.1502C28.6886 30.2118 28.6886 30.2118 28.7497 30.2734C28.8107 30.335 28.8107 30.335 28.8717 30.3965C29.4211 31.1355 29.7873 32.0591 29.9094 32.9827C29.9094 32.8596 29.9094 32.7364 29.9094 32.6133V30.0887V22.3916C29.9094 22.2685 29.9094 22.1453 29.9094 21.9606C29.7873 22.8842 29.4211 23.8079 28.8717 24.5468C28.7497 24.6699 28.6886 24.6699 28.6886 24.7315Z" fill="#29629B"/>
<path d="M48.3428 16.8497C47.3051 16.8497 46.4506 16.9112 45.7792 17.096C45.1078 17.2807 44.5584 17.527 44.1312 17.8965C43.7039 18.2659 43.3987 18.7585 43.2156 19.3743C43.0325 19.9901 42.9714 20.6674 42.9714 21.5295V24.8546C42.9714 25.6551 43.0325 26.394 43.2156 27.0098C43.3987 27.6255 43.7039 28.0566 44.1312 28.4876C44.5584 28.857 45.1078 29.1649 45.7792 29.2881C46.4506 29.4728 47.3051 29.5344 48.3428 29.5344H57.4984C57.7426 29.5344 57.9257 29.4112 57.9257 29.1034V27.1945C57.9257 26.9482 57.8036 26.7635 57.4984 26.7635H48.6479C48.1596 26.7635 47.7324 26.7019 47.4272 26.6403C47.122 26.5787 46.8779 26.394 46.6947 26.2093C46.5116 26.0245 46.3895 25.7782 46.3285 25.4088C46.2675 25.1009 46.2064 24.6699 46.2064 24.1772V22.1452C46.2064 21.6526 46.2675 21.2832 46.3285 20.9137C46.3895 20.6058 46.5116 20.2979 46.6947 20.1132C46.8779 19.9285 47.122 19.8053 47.4272 19.6822C47.7324 19.6206 48.1596 19.559 48.6479 19.559H57.4984C57.7426 19.559 57.9257 19.4359 57.9257 19.128V17.2191C57.9257 16.9728 57.8036 16.7881 57.4984 16.7881H48.3428V16.8497Z" fill="#282626"/>
<path d="M65.3723 16.8497C64.3346 16.8497 63.4801 16.9113 62.8087 17.096C62.1373 17.2808 61.588 17.5271 61.1607 17.8965C60.7334 18.266 60.4282 18.7586 60.2451 19.3744C60.062 19.9901 60.001 20.6675 60.001 21.5295V24.8547C60.001 25.6552 60.062 26.3941 60.2451 27.0098C60.4282 27.6256 60.7334 28.0566 61.1607 28.4877C61.588 28.8571 62.1373 29.165 62.8087 29.2882C63.4801 29.4729 64.3346 29.5345 65.3723 29.5345H71.8423C72.8799 29.5345 73.7344 29.4729 74.4059 29.2882C75.0773 29.1034 75.6876 28.8571 76.0539 28.4877C76.4811 28.1182 76.7863 27.6256 76.9694 27.0098C77.1525 26.3941 77.2136 25.7167 77.2136 24.8547V21.5295C77.2136 20.729 77.1525 19.9901 76.9694 19.3744C76.7863 18.7586 76.4811 18.3276 76.0539 17.8965C75.6266 17.5271 75.0773 17.2192 74.4059 17.096C73.7344 16.9113 72.8189 16.8497 71.8423 16.8497H65.3723ZM63.1749 22.0837C63.1749 21.5911 63.236 21.2217 63.297 20.9138C63.358 20.6059 63.4801 20.3596 63.7243 20.1133C63.9074 19.9285 64.1515 19.8054 64.5178 19.6822C64.8229 19.6207 65.2502 19.5591 65.7385 19.5591H71.5371C72.0254 19.5591 72.4526 19.6207 72.7578 19.6822C73.063 19.7438 73.3072 19.867 73.5513 20.1133C73.7344 20.298 73.8565 20.5443 73.9786 20.9138C74.0396 21.2217 74.1007 21.6527 74.1007 22.0837V24.3005C74.1007 24.7931 74.0396 25.2241 73.9786 25.532C73.9176 25.8399 73.7955 26.0862 73.5513 26.3325C73.3682 26.5172 73.1241 26.6404 72.7578 26.7635C72.4526 26.8251 72.0254 26.8867 71.5371 26.8867H65.7385C65.2502 26.8867 64.8229 26.8251 64.5178 26.7635C64.2126 26.702 63.9684 26.5172 63.7243 26.3325C63.5412 26.1478 63.4191 25.9015 63.297 25.532C63.236 25.2241 63.1749 24.7931 63.1749 24.3005V22.0837Z" fill="#282626"/>
<path d="M85.1484 16.8492C84.1108 16.8492 83.2563 16.9108 82.5848 17.0955C81.9134 17.2802 81.3641 17.5265 80.9368 17.896C80.5095 18.2654 80.2044 18.7581 80.0212 19.3738C79.8381 19.9896 79.7771 20.6669 79.7771 21.529V24.8541C79.7771 25.6546 79.8381 26.3935 80.0212 27.0093C80.2044 27.625 80.5095 28.0561 80.9368 28.4871C81.3641 28.8566 81.9134 29.1645 82.5848 29.2876C83.2563 29.4723 84.1108 29.5339 85.1484 29.5339H91.5574C92.595 29.5339 93.4495 29.4723 94.121 29.2876C94.7924 29.1029 95.4027 28.8566 95.769 28.4871C96.1962 28.1177 96.5014 27.625 96.6845 27.0093C96.8676 26.3935 96.9287 25.7162 96.9287 24.8541V12.7236C96.9287 12.4157 96.7456 12.231 96.4404 12.231H94.182C93.8768 12.231 93.6937 12.4157 93.6937 12.7236V16.8492H85.1484ZM85.5146 26.763C85.0263 26.763 84.5991 26.7014 84.2939 26.6398C83.9887 26.5782 83.7446 26.3935 83.5004 26.2088C83.3173 26.0241 83.1952 25.7778 83.0731 25.4083C83.0121 25.1004 82.9511 24.6694 82.9511 24.1768V22.1448C82.9511 21.6521 83.0121 21.2827 83.0731 20.9132C83.1342 20.6053 83.2563 20.2975 83.5004 20.1127C83.6835 19.928 83.9277 19.8049 84.2939 19.6817C84.5991 19.6201 85.0263 19.5585 85.5146 19.5585H93.7547V24.1152C93.7547 24.6078 93.6937 25.0388 93.6326 25.3467C93.5716 25.6546 93.4495 25.9009 93.2054 26.1472C93.0223 26.3319 92.7781 26.4551 92.4119 26.5782C92.1067 26.6398 91.6794 26.7014 91.1911 26.7014H85.5146V26.763Z" fill="#282626"/>
<path d="M104.741 16.8497C103.704 16.8497 102.849 16.9113 102.178 17.096C101.506 17.2808 100.957 17.5271 100.53 17.8965C100.103 18.266 99.7974 18.7586 99.6143 19.3744C99.4312 19.9901 99.3701 20.6675 99.3701 21.5295V24.8547C99.3701 25.6552 99.4312 26.3941 99.6143 27.0098C99.7974 27.6256 100.103 28.0566 100.53 28.4877C100.957 28.8571 101.506 29.165 102.178 29.2882C102.849 29.4729 103.704 29.5345 104.741 29.5345H114.568C114.813 29.5345 114.996 29.4113 114.996 29.1034V27.1946C114.996 26.9483 114.874 26.7635 114.568 26.7635H105.047C104.07 26.7635 103.399 26.5788 103.032 26.2709C102.666 25.963 102.544 25.4088 102.544 24.7315V24.1773H114.08C114.507 24.1773 114.874 24.0542 115.057 23.8694C115.24 23.6847 115.362 23.3153 115.362 22.8226V20.6675C115.362 19.9901 115.301 19.3744 115.179 18.8818C115.057 18.3891 114.874 18.0197 114.568 17.7118C114.263 17.4039 113.897 17.2192 113.348 17.096C112.859 16.9729 112.188 16.9113 111.395 16.9113H104.741V16.8497ZM102.544 21.468C102.544 20.729 102.727 20.1749 103.032 19.867C103.399 19.5591 104.07 19.3744 105.047 19.3744H110.784C111.333 19.3744 111.7 19.4975 111.883 19.6822C112.066 19.867 112.188 20.2364 112.188 20.6675V21.6527C112.188 21.899 112.066 22.0221 111.822 22.0221H102.544V21.468Z" fill="#282626"/>
<path d="M118.292 12.231C117.926 12.231 117.742 12.4157 117.742 12.7236V24.8541C117.742 25.6546 117.803 26.3935 117.987 27.0093C118.17 27.625 118.475 28.0561 118.902 28.4871C119.329 28.8566 119.879 29.1645 120.55 29.2876C121.222 29.4723 122.076 29.5339 123.114 29.5339H129.523C130.56 29.5339 131.415 29.4723 132.086 29.2876C132.758 29.1029 133.368 28.8566 133.734 28.4871C134.162 28.1177 134.467 27.625 134.65 27.0093C134.833 26.3935 134.894 25.7162 134.894 24.8541V21.529C134.894 20.7285 134.833 19.9896 134.65 19.3738C134.467 18.7581 134.162 18.327 133.734 17.896C133.307 17.5265 132.758 17.2186 132.086 17.0955C131.415 16.9108 130.499 16.8492 129.523 16.8492H120.977V12.7236C120.977 12.4157 120.794 12.231 120.489 12.231H118.292ZM129.279 19.6201C129.767 19.6201 130.194 19.6817 130.499 19.7433C130.805 19.8048 131.049 19.9896 131.293 20.1743C131.476 20.359 131.598 20.6053 131.72 20.9748C131.781 21.2827 131.842 21.7137 131.842 22.2063V24.2383C131.842 24.731 131.781 25.162 131.72 25.4699C131.659 25.7778 131.537 26.0241 131.293 26.2704C131.11 26.4551 130.866 26.5782 130.499 26.7014C130.194 26.763 129.767 26.8246 129.279 26.8246H123.541C123.053 26.8246 122.625 26.763 122.32 26.7014C122.015 26.6398 121.771 26.4551 121.527 26.2704C121.344 26.0856 121.222 25.8393 121.1 25.4699C121.038 25.162 120.977 24.731 120.977 24.2383V19.6817H129.279V19.6201Z" fill="#282626"/>
<path d="M143.073 16.8497C142.036 16.8497 141.181 16.9112 140.51 17.096C139.838 17.2807 139.289 17.527 138.862 17.8965C138.434 18.2659 138.129 18.7585 137.946 19.3743C137.763 19.9901 137.702 20.6674 137.702 21.5295V28.9802C137.702 29.2881 137.885 29.4728 138.251 29.4728H140.51C140.815 29.4728 140.998 29.2881 140.998 28.9802V22.1452C140.998 21.6526 141.059 21.2832 141.12 20.9137C141.181 20.6058 141.303 20.2979 141.547 20.1132C141.73 19.9285 141.975 19.8053 142.341 19.6822C142.646 19.6206 143.073 19.559 143.562 19.559H149.665C149.909 19.559 150.093 19.4359 150.093 19.128V17.2191C150.093 16.9728 149.97 16.7881 149.665 16.7881H143.073V16.8497Z" fill="#282626"/>
<path d="M152.229 16.8497C151.924 16.8497 151.74 17.0345 151.74 17.4039V29.0418C151.74 29.3497 151.924 29.5345 152.229 29.5345H154.487C154.792 29.5345 154.975 29.3497 154.975 29.0418V17.4039C154.975 17.0345 154.792 16.8497 154.487 16.8497H152.229ZM152.229 12.1699C151.863 12.1699 151.679 12.3547 151.679 12.6625V14.8793C151.679 15.2487 151.863 15.4335 152.229 15.4335H154.487C154.792 15.4335 154.975 15.2487 154.975 14.8793V12.6625C154.975 12.3547 154.792 12.1699 154.487 12.1699H152.229Z" fill="#282626"/>
<path d="M163.093 16.8492C162.056 16.8492 161.201 16.9108 160.53 17.0955C159.858 17.2802 159.309 17.5265 158.882 17.896C158.455 18.2654 158.149 18.7581 157.966 19.3738C157.783 19.9896 157.722 20.6669 157.722 21.529V24.8541C157.722 25.6546 157.783 26.3935 157.966 27.0093C158.149 27.625 158.455 28.0561 158.882 28.4871C159.309 28.8566 159.858 29.1645 160.53 29.2876C161.201 29.4723 162.056 29.5339 163.093 29.5339H169.502C170.54 29.5339 171.395 29.4723 172.066 29.2876C172.737 29.1029 173.348 28.8566 173.714 28.4871C174.141 28.1177 174.446 27.625 174.63 27.0093C174.813 26.3935 174.874 25.7162 174.874 24.8541V12.7236C174.874 12.4157 174.691 12.231 174.385 12.231H172.127C171.822 12.231 171.639 12.4157 171.639 12.7236V16.8492H163.093ZM163.46 26.763C162.971 26.763 162.544 26.7014 162.239 26.6398C161.934 26.5782 161.69 26.3935 161.445 26.2088C161.262 26.0241 161.14 25.7778 161.018 25.4083C160.957 25.1004 160.896 24.6694 160.896 24.1768V22.1448C160.896 21.6521 160.957 21.2827 161.018 20.9132C161.079 20.6053 161.201 20.2975 161.445 20.1127C161.629 19.928 161.873 19.8049 162.239 19.6817C162.544 19.6201 162.971 19.5585 163.46 19.5585H171.7V24.1152C171.7 24.6078 171.639 25.0388 171.578 25.3467C171.517 25.6546 171.395 25.9009 171.15 26.1472C170.967 26.3319 170.723 26.4551 170.357 26.5782C170.052 26.6398 169.624 26.7014 169.136 26.7014H163.46V26.763Z" fill="#282626"/>
<path d="M182.992 16.8497C181.954 16.8497 181.1 16.9113 180.428 17.096C179.757 17.2808 179.207 17.5271 178.78 17.8965C178.353 18.266 178.048 18.7586 177.865 19.3744C177.681 19.9901 177.62 20.6675 177.62 21.5295V23.931C177.62 24.7931 177.681 25.4704 177.865 26.0862C178.048 26.702 178.353 27.133 178.78 27.564C179.207 27.9335 179.757 28.2414 180.428 28.3645C181.1 28.5492 181.954 28.6108 182.992 28.6108H191.598V29.2266C191.598 29.7192 191.537 30.1502 191.476 30.4581C191.415 30.766 191.293 31.0739 191.049 31.2586C190.866 31.4433 190.621 31.5665 190.255 31.6896C189.95 31.7512 189.523 31.8128 189.034 31.8128H178.658C178.414 31.8128 178.231 31.9359 178.231 32.2438V34.2143C178.231 34.4606 178.353 34.6453 178.658 34.6453H189.401C190.438 34.6453 191.293 34.5837 191.964 34.399C192.636 34.2143 193.246 33.968 193.612 33.5985C194.039 33.229 194.345 32.7364 194.528 32.1207C194.711 31.5049 194.772 30.8276 194.772 29.9655V21.5295C194.772 20.729 194.711 19.9901 194.528 19.3744C194.345 18.7586 194.039 18.3276 193.612 17.9581C193.185 17.5886 192.636 17.3423 191.964 17.1576C191.293 16.9729 190.377 16.9113 189.401 16.9113H182.992V16.8497ZM180.855 21.7758C180.855 21.4064 180.916 21.0369 180.977 20.7906C181.038 20.5443 181.161 20.298 181.405 20.1133C181.588 19.9285 181.832 19.8054 182.198 19.7438C182.503 19.6822 182.931 19.6207 183.419 19.6207H189.156C190.133 19.6207 190.804 19.8054 191.171 20.1133C191.537 20.4212 191.659 21.0369 191.659 21.8374V26.1478H183.419C182.931 26.1478 182.503 26.0862 182.198 26.0246C181.893 25.963 181.649 25.8399 181.405 25.6552C181.222 25.4704 181.1 25.2857 180.977 24.9778C180.916 24.7315 180.855 24.3621 180.855 23.9926V21.7758Z" fill="#282626"/>
<path d="M202.585 16.8497C201.547 16.8497 200.693 16.9113 200.021 17.096C199.35 17.2808 198.801 17.5271 198.373 17.8965C197.946 18.266 197.641 18.7586 197.458 19.3744C197.275 19.9901 197.214 20.6675 197.214 21.5295V24.8547C197.214 25.6552 197.275 26.3941 197.458 27.0098C197.641 27.6256 197.946 28.0566 198.373 28.4877C198.801 28.8571 199.35 29.165 200.021 29.2882C200.693 29.4729 201.547 29.5345 202.585 29.5345H212.412C212.656 29.5345 212.839 29.4113 212.839 29.1034V27.1946C212.839 26.9483 212.717 26.7635 212.412 26.7635H202.89C201.914 26.7635 201.242 26.5788 200.876 26.2709C200.51 25.963 200.388 25.4088 200.388 24.7315V24.1773H211.924C212.351 24.1773 212.717 24.0542 212.9 23.8694C213.083 23.6847 213.205 23.3153 213.205 22.8226V20.6675C213.205 19.9901 213.144 19.3744 213.022 18.8818C212.9 18.3891 212.717 18.0197 212.412 17.7118C212.107 17.4039 211.741 17.2192 211.191 17.096C210.703 16.9729 210.032 16.9113 209.238 16.9113H202.585V16.8497ZM200.388 21.468C200.388 20.729 200.571 20.1749 200.876 19.867C201.242 19.5591 201.914 19.3744 202.89 19.3744H208.628C209.177 19.3744 209.543 19.4975 209.726 19.6822C209.909 19.867 210.032 20.2364 210.032 20.6675V21.6527C210.032 21.899 209.909 22.0221 209.665 22.0221H200.388V21.468Z" fill="#282626"/>
</svg>
